<?xml version="1.0" encoding="utf-8"?>
<!-- Generator: Adobe Illustrator 19.0.0, SVG Export Plug-In . SVG Version: 6.00 Build 0)  -->
<svg version="1.1" id="Layer_1" xmlns="http://www.w3.org/2000/svg" xmlns:xlink="http://www.w3.org/1999/xlink" x="0px" y="0px"
	 viewBox="0 0 500 500" style="enable-background:new 0 0 500 500;" xml:space="preserve">
<style type="text/css">
	.st0{display:none;}
	.st1{display:inline;fill:#1A1A1D;}
	.st2{fill:#950740;}
	.st3{fill:#C3073F;}
	.st4{fill:#FFFFFF;stroke:#231F20;stroke-miterlimit:10;}
	.st5{display:inline;fill:#FFD700;stroke:#231F20;stroke-miterlimit:10;}
</style>
<g id="XMLID_11_" class="st0">
	<path id="XMLID_13_" class="st1" d="M340.1,123.3c-11.4,21.3-29.1,53.5-52.9,92.1c-54.8,89.2-100.2,145.5-96.3,148
		c3.6,2.3,46.2-45.1,66.6-67.8c35.8-39.9,64-74.1,83.3-98.2c28.5,19.6,57,39.1,85.4,58.7C397.6,211.8,368.8,167.6,340.1,123.3z"/>
	<path id="XMLID_12_" class="st1" d="M151.9,124.7c11.4,21.3,29.1,53.5,52.9,92.1c54.8,89.2,100.2,145.5,96.3,148
		c-3.6,2.3-46.2-45.1-66.6-67.8c-35.8-39.9-64-74.1-83.3-98.2c-28.5,19.6-57,39.1-85.4,58.7C94.4,213.1,123.2,168.9,151.9,124.7z"/>
</g>
<g id="XMLID_7_">
	<path id="XMLID_10_" class="st2" d="M336.7,21.7c-11,34.7-28.1,87-50.9,149.7c-52.8,144.9-96.5,236.4-92.8,240.5
		c3.5,3.8,44.5-73.2,64.2-110.3c34.5-64.9,61.7-120.5,80.2-159.6c27.4,31.8,54.9,63.6,82.3,95.3C392,165.4,364.3,93.6,336.7,21.7z"
		/>
	<path id="XMLID_9_" class="st2" d="M155.3,23.9c11,34.7,28.1,87,50.9,149.7C259.1,318.4,302.7,410,299,414
		c-3.5,3.8-44.5-73.2-64.2-110.3c-34.5-64.9-61.7-120.5-80.2-159.6c-27.4,31.8-54.9,63.6-82.3,95.3C100,167.6,127.7,95.8,155.3,23.9
		z"/>
</g>
<g id="XMLID_2_">
	<path id="XMLID_8_" class="st3" d="M340.1,56.4c-11.4,31.8-29.1,79.8-52.9,137.3C232.4,326.5,187.1,410.5,191,414.2
		c3.6,3.5,46.2-67.2,66.6-101.1c35.8-59.5,64-110.5,83.3-146.4c28.5,29.2,57,58.3,85.4,87.5C397.6,188.2,368.8,122.3,340.1,56.4z"/>
	<path id="XMLID_6_" class="st3" d="M151.9,58.4c11.4,31.8,29.1,79.8,52.9,137.3c54.8,132.9,100.2,216.9,96.3,220.6
		c-3.6,3.5-46.2-67.2-66.6-101.1c-35.8-59.5-64-110.5-83.3-146.4c-28.5,29.2-57,58.3-85.4,87.5C94.4,190.2,123.2,124.3,151.9,58.4z"
		/>
</g>
<path id="XMLID_3_" class="st4" d="M463.9,293.4"/>
<g id="XMLID_1_" class="st0">
	<path id="XMLID_4_" class="st5" d="M246,170c-1.8,0-5.8-0.1-7.6-0.1c-0.1,9.1-0.2,18.2-0.2,27.3c-7.1-0.1-14.2-0.2-21.3-0.3
		c0,6.5,0,13.1,0,19.6c7.1-0.5,14.2-1,21.3-1.5c-1.3,46.3-2.6,92.6-3.9,138.9c3.9,22.8,7.9,45.6,11.8,68.4"/>
	<path id="XMLID_5_" class="st5" d="M246,170c1.8,0,5.8-0.1,7.6-0.1c0.1,9.1,0.2,18.2,0.2,27.3c7.1-0.1,14.2-0.2,21.3-0.3
		c0,6.5,0,13.1,0,19.6c-7.1-0.5-14.2-1-21.3-1.5c1.3,46.3,2.6,92.6,3.9,138.9c-3.9,22.8-7.9,45.6-11.8,68.4"/>
</g>
</svg>
